<svg width="216" height="42" viewBox="0 0 216 42" fill="none" xmlns="http://www.w3.org/2000/svg">
<path d="M15.359 1.8H0.967031V8.576H3.87903V40.944H10.655V24.76H15.359C21.687 24.76 26.839 19.608 26.839 13.28C26.839 6.952 21.687 1.8 15.359 1.8ZM15.359 17.984H10.655V8.576H15.359C17.991 8.576 20.063 10.704 20.063 13.28C20.063 15.856 17.991 17.984 15.359 17.984ZM56.0671 34.224V1.8H49.2911V28.624C49.2911 31.704 46.7711 34.168 43.6911 34.168C40.6671 34.168 38.1471 31.704 38.0911 28.624V1.8H31.3711V28.624C31.3151 33.216 33.8911 37.472 37.9791 39.6C42.1231 41.728 47.0511 41.392 50.8031 38.76C52.0351 40.16 53.7711 41 55.6191 41H59.0351V34.224H56.0671ZM88.2509 13.28C88.2509 6.952 83.0989 1.8 76.7709 1.8H62.3789V8.576H65.2909V40.944H72.0669V24.76C72.1229 24.76 76.8829 24.76 76.9389 24.76C79.4589 24.872 81.4749 26.944 81.4749 29.464V40.944H88.2509V29.464C88.2509 26.44 87.0749 23.528 84.8909 21.344C87.0749 19.216 88.2509 16.304 88.2509 13.28ZM76.7709 17.984H72.0669V8.576H76.7709C79.3469 8.576 81.4189 10.648 81.4749 13.168C81.5309 15.744 79.5149 17.872 76.9389 17.984C76.8829 17.984 76.8269 17.984 76.7709 17.984ZM106.531 8.744V1.968H103.619V1.912H96.8434V1.968H93.9314V8.744H96.8434V34.28H93.9314V41.056H106.531V34.28H103.619V8.744H106.531ZM113.289 1.8V8.576H129.249C128.241 11.6 124.489 16.024 121.353 19.72C117.041 24.872 112.953 29.688 112.225 34.224C112.169 34.672 112.169 35.12 112.169 35.568V41H135.129V34.224H119.225C120.289 31.536 123.817 27.336 126.561 24.088C131.153 18.656 135.465 13.504 136.193 8.576C136.249 8.128 136.305 7.68 136.305 7.232V1.8H113.289ZM172.522 1.8C169.386 1.8 166.362 3.088 164.178 5.328C160.09 1.24 153.65 0.623999 148.946 3.984C147.714 2.64 145.978 1.856 144.13 1.912H140.77V8.632H143.962V41H150.738V13.616C150.738 10.816 152.978 8.576 155.778 8.576C158.522 8.576 160.762 10.816 160.762 13.616V41H167.538V13.616C167.538 10.816 169.778 8.576 172.522 8.576C175.322 8.576 177.562 10.816 177.562 13.616V41H184.338V13.616C184.338 7.064 179.018 1.8 172.522 1.8ZM202.924 1.856C195.756 1.856 189.932 7.68 189.932 14.848V41H196.652V27.112H209.14V41H215.916V14.848C215.916 7.68 210.092 1.856 202.924 1.856ZM196.652 20.336V14.848C196.652 11.432 199.452 8.632 202.924 8.632C206.34 8.632 209.14 11.432 209.14 14.848V20.336H196.652Z" fill="white"/>
</svg>
